<svg width="1600" height="900" viewBox="0 0 1600 900" fill="none" xmlns="http://www.w3.org/2000/svg">
  <defs>
    <linearGradient id="bg" x1="0" y1="0" x2="1600" y2="900" gradientUnits="userSpaceOnUse">
      <stop offset="0" stop-color="#07111F" />
      <stop offset="0.5" stop-color="#0D3B33" />
      <stop offset="1" stop-color="#D11A2A" />
    </linearGradient>
    <radialGradient id="greenGlow" cx="0" cy="0" r="1" gradientUnits="userSpaceOnUse" gradientTransform="translate(1240 250) rotate(140) scale(420 320)">
      <stop offset="0" stop-color="#34D399" stop-opacity="0.75" />
      <stop offset="1" stop-color="#34D399" stop-opacity="0" />
    </radialGradient>
    <radialGradient id="redGlow" cx="0" cy="0" r="1" gradientUnits="userSpaceOnUse" gradientTransform="translate(260 170) rotate(45) scale(300 220)">
      <stop offset="0" stop-color="#F87171" stop-opacity="0.55" />
      <stop offset="1" stop-color="#F87171" stop-opacity="0" />
    </radialGradient>
    <linearGradient id="accent" x1="96" y1="560" x2="1504" y2="560" gradientUnits="userSpaceOnUse">
      <stop offset="0" stop-color="#F43F5E" />
      <stop offset="0.48" stop-color="#FFFFFF" stop-opacity="0.22" />
      <stop offset="1" stop-color="#34D399" />
    </linearGradient>
    <filter id="softShadow" x="-20%" y="-20%" width="140%" height="140%">
      <feDropShadow dx="0" dy="20" stdDeviation="24" flood-color="#000000" flood-opacity="0.28" />
    </filter>
  </defs>

  <rect width="1600" height="900" fill="url(#bg)" />
  <rect width="1600" height="900" fill="url(#greenGlow)" />
  <rect width="1600" height="900" fill="url(#redGlow)" />

  <path d="M0 710C190 650 320 480 600 470C860 460 1020 620 1320 610C1450 606 1530 582 1600 556V900H0V710Z" fill="#020814" fill-opacity="0.48" />
  <path d="M0 820C180 760 320 700 620 690C900 680 1100 780 1380 770C1490 766 1555 742 1600 722V900H0V820Z" fill="#000000" fill-opacity="0.2" />

  <g opacity="0.22">
    <rect x="1160" y="88" width="260" height="260" rx="72" transform="rotate(24 1160 88)" fill="#34D399" />
    <rect x="1060" y="180" width="320" height="320" rx="84" transform="rotate(24 1060 180)" fill="#07111F" />
    <rect x="1080" y="214" width="260" height="260" rx="72" transform="rotate(24 1080 214)" fill="#D11A2A" fill-opacity="0.55" />
  </g>

  <g opacity="0.28">
    <circle cx="280" cy="180" r="120" fill="#F43F5E" />
    <circle cx="280" cy="180" r="62" fill="#FFFFFF" fill-opacity="0.06" />
    <circle cx="260" cy="176" r="22" fill="#FFFFFF" fill-opacity="0.14" />
  </g>

  <g filter="url(#softShadow)">
    <rect x="96" y="114" width="620" height="268" rx="36" fill="#07111F" fill-opacity="0.58" stroke="#FFFFFF" stroke-opacity="0.12" />
    <rect x="120" y="140" width="164" height="8" rx="4" fill="url(#accent)" />
    <text x="120" y="222" fill="#FFFFFF" font-size="58" font-weight="700" font-family="Inter, Arial, sans-serif" letter-spacing="0.5">Blockchain Summit Latam</text>
    <text x="120" y="286" fill="#F8FAFC" fill-opacity="0.9" font-size="34" font-weight="600" font-family="Inter, Arial, sans-serif">BSL 2025 Archive</text>
    <text x="120" y="336" fill="#E2E8F0" fill-opacity="0.82" font-size="24" font-weight="500" font-family="Inter, Arial, sans-serif">Medellin, Colombia · Universidad EAFIT</text>
  </g>

  <g opacity="0.16">
    <path d="M1400 100L1600 0V190L1450 250L1400 100Z" fill="#FFFFFF" />
    <path d="M70 760L320 620L420 760L190 900H0V820L70 760Z" fill="#FFFFFF" />
  </g>

  <path d="M96 450H1504" stroke="#FFFFFF" stroke-opacity="0.14" stroke-width="1" />
  <path d="M96 478H900" stroke="#FFFFFF" stroke-opacity="0.08" stroke-width="1" />
</svg>
