<?xml version="1.0" encoding="UTF-8" standalone="no"?>
<!-- Created with Inkscape (http://www.inkscape.org/) -->

<svg
   width="104.23189mm"
   height="104.5265mm"
   viewBox="0 0 104.23189 104.5265"
   version="1.1"
   id="svg1"
   xml:space="preserve"
   xmlns:inkscape="http://www.inkscape.org/namespaces/inkscape"
   xmlns:sodipodi="http://sodipodi.sourceforge.net/DTD/sodipodi-0.dtd"
   xmlns="http://www.w3.org/2000/svg"
   xmlns:svg="http://www.w3.org/2000/svg"><sodipodi:namedview
     id="namedview1"
     pagecolor="#ffffff"
     bordercolor="#000000"
     borderopacity="0.25"
     inkscape:showpageshadow="2"
     inkscape:pageopacity="0.0"
     inkscape:pagecheckerboard="0"
     inkscape:deskcolor="#d1d1d1"
     inkscape:document-units="mm"
     inkscape:zoom="1.0387346"
     inkscape:cx="396.63646"
     inkscape:cy="561.25984"
     inkscape:window-width="2560"
     inkscape:window-height="1368"
     inkscape:window-x="1080"
     inkscape:window-y="682"
     inkscape:window-maximized="1"
     inkscape:current-layer="layer1"><inkscape:page
       x="0"
       y="4.2676364e-20"
       width="104.23189"
       height="104.5265"
       id="page2"
       margin="0"
       bleed="0" /></sodipodi:namedview><defs
     id="defs1" /><g
     inkscape:label="Layer 1"
     inkscape:groupmode="layer"
     id="layer1"
     transform="translate(-90.728743,-51.177471)"><g
       id="g1"
       transform="translate(-5.8584906,7.3867914)"
       inkscape:export-filename="g1.svg"
       inkscape:export-xdpi="96"
       inkscape:export-ydpi="96"><path
         style="fill:#0fe5f0"
         d="m 143.41848,148.24361 c -15.9754,-1.48067 -31.01322,-11.11633 -39.4834,-25.29944 -3.201,-5.35999 -5.537421,-11.6885 -6.520779,-17.66237 -0.685524,-4.16454 -0.827072,-5.749396 -0.827072,-9.260416 0,-7.64547 1.673784,-15.26474 4.914531,-22.37155 3.65683,-8.01925 11.05858,-16.594995 18.50109,-21.435544 4.44811,-2.89301 11.0516,-5.833661 15.38495,-6.851184 0.99713,-0.234139 2.22969,-0.530543 2.73901,-0.658675 0.50932,-0.128132 1.75948,-0.385034 2.77812,-0.570894 2.46624,-0.449983 12.90681,-0.459509 15.21355,-0.01388 0.94588,0.182731 2.37463,0.457328 3.175,0.610215 5.17317,0.988187 13.36578,4.402634 18.12396,7.553558 10.56124,6.993784 18.75402,18.550784 21.68687,30.592224 0.90965,3.73476 1.70982,9.99237 1.71479,13.41032 0.003,1.94051 -0.49353,6.623876 -1.00948,9.524996 -2.77848,15.62314 -13.00071,29.42199 -27.32073,36.87988 -4.72248,2.45948 -10.43913,4.42454 -15.0475,5.17248 -1.98637,0.32239 -11.78152,0.58802 -14.02291,0.38028 z m 10.92924,-3.01976 c 5.9615,-0.86026 7.04943,-1.13381 11.79308,-2.96533 15.81475,-6.10606 26.97469,-19.35098 30.59863,-36.31526 0.89748,-4.20126 1.22112,-12.002106 0.65224,-15.721036 -1.17237,-7.66403 -2.21845,-11.14488 -5.03519,-16.75469 -5.39654,-10.74773 -14.50049,-18.99479 -25.78135,-23.354742 -10.26765,-3.968359 -20.32615,-4.528492 -30.90688,-1.721126 -4.26662,1.132054 -10.01922,3.761283 -14.34248,6.555246 -7.56256,4.887402 -14.65738,13.586202 -18.07124,22.156762 -1.63733,4.11058 -2.33074,6.6494 -3.25085,11.90269 -0.689852,3.93868 -0.346729,12.790666 0.68934,17.783696 0.83723,4.03475 3.85609,11.90695 5.39481,14.06788 0.30446,0.42758 0.55356,0.84083 0.55356,0.91834 0,0.60411 4.4337,6.21346 7.00412,8.86136 4.32194,4.45222 8.51897,7.49997 13.75654,9.98957 7.02697,3.34016 13.29514,4.76663 21.25713,4.83754 2.08202,0.0185 4.64186,-0.0899 5.68854,-0.2409 z"
         id="path2"
         inkscape:export-filename="logo-hashpass.svg"
         inkscape:export-xdpi="96"
         inkscape:export-ydpi="96" /><path
         style="fill:#cf0f17"
         d="m 128.19996,120.73001 c -0.22496,-5.4 -0.0853,-8.199 0.43432,-8.70611 0.35566,-0.34707 2.03368,-1.31956 6.05295,-3.50796 1.0914,-0.59424 4.00843,-2.21781 6.48229,-3.60792 2.47385,-1.39011 6.60973,-3.6904 9.19083,-5.111736 2.58111,-1.42135 4.65508,-2.70242 4.60884,-2.84681 -0.0735,-0.2296 -1.5975,-1.12688 -6.9205,-4.07463 -0.72761,-0.40292 -3.04933,-1.69516 -5.15938,-2.87162 -4.61041,-2.57055 -6.19163,-3.44095 -10.81147,-5.95134 -2.42075,-1.31542 -3.60948,-2.11425 -3.77031,-2.53366 -0.26131,-0.68143 -0.32768,-11.93466 -0.0743,-12.59499 0.0883,-0.23018 0.31178,-0.41851 0.49656,-0.41851 0.18477,0 2.76164,1.41189 5.72638,3.13754 2.96473,1.72565 10.56964,6.14651 16.8998,9.82412 6.33015,3.67761 13.05719,7.58629 14.94896,8.68594 5.03516,2.92686 5.67582,3.40371 6.23881,4.64352 0.89385,1.96842 0.55373,4.5103 -0.78539,5.869626 -0.60453,0.61365 -17.49191,10.51134 -18.6622,10.93791 -0.15674,0.0571 -0.58263,0.30685 -0.94643,0.55494 -0.3638,0.24808 -1.3163,0.8115 -2.11667,1.25202 -0.80036,0.44053 -5.02709,2.85004 -9.39271,5.35445 -9.28663,5.32744 -11.63504,6.62534 -11.98784,6.62534 -0.15102,0 -0.33908,-1.93657 -0.45255,-4.66012 z"
         id="path1" /></g></g></svg>
