<?xml version="1.0" encoding="UTF-8" standalone="no"?>
<!-- Created with Inkscape (http://www.inkscape.org/) -->

<svg
   width="104.23188mm"
   height="104.5265mm"
   viewBox="0 0 104.23188 104.5265"
   version="1.1"
   id="svg1"
   xml:space="preserve"
   xmlns:inkscape="http://www.inkscape.org/namespaces/inkscape"
   xmlns:sodipodi="http://sodipodi.sourceforge.net/DTD/sodipodi-0.dtd"
   xmlns="http://www.w3.org/2000/svg"
   xmlns:svg="http://www.w3.org/2000/svg"><sodipodi:namedview
     id="namedview1"
     pagecolor="#ffffff"
     bordercolor="#000000"
     borderopacity="0.25"
     inkscape:showpageshadow="2"
     inkscape:pageopacity="0.0"
     inkscape:pagecheckerboard="0"
     inkscape:deskcolor="#d1d1d1"
     inkscape:document-units="mm"><inkscape:page
       x="0"
       y="3.2038418e-20"
       width="104.23188"
       height="104.5265"
       id="page2"
       margin="0"
       bleed="0" /></sodipodi:namedview><defs
     id="defs1" /><g
     inkscape:label="Layer 1"
     inkscape:groupmode="layer"
     id="layer1"
     transform="translate(-45.898548,-87.856721)"><g
       id="g1"
       transform="translate(-4.0754717,1.528301)"><path
         style="fill:#0fe5f0"
         d="M 96.805269,190.78135 C 80.829875,189.30068 65.79205,179.66502 57.321872,165.48191 c -3.200998,-5.35999 -5.537421,-11.6885 -6.520779,-17.66237 -0.685524,-4.16454 -0.827072,-5.7494 -0.827072,-9.26042 0,-7.64547 1.673784,-15.26474 4.914533,-22.37155 3.656827,-8.01925 11.058581,-16.594995 18.501091,-21.435544 4.448103,-2.89301 11.051596,-5.833661 15.384945,-6.851184 0.997134,-0.234139 2.22969,-0.530543 2.739012,-0.658675 0.509323,-0.128132 1.75948,-0.385034 2.778125,-0.570894 2.466239,-0.449983 12.906803,-0.459509 15.213543,-0.01388 0.94588,0.182731 2.37463,0.457328 3.175,0.610215 5.17317,0.988187 13.36578,4.402634 18.12396,7.553558 10.56124,6.993784 18.75402,18.550784 21.68687,30.592224 0.90965,3.73476 1.70982,9.99237 1.71479,13.41032 0.003,1.94051 -0.49353,6.62388 -1.00948,9.525 -2.77848,15.62314 -13.00071,29.42199 -27.32073,36.87988 -4.72248,2.45948 -10.43913,4.42454 -15.0475,5.17248 -1.98637,0.32239 -11.781517,0.58802 -14.022911,0.38028 z m 10.929241,-3.01976 c 5.9615,-0.86026 7.04943,-1.13381 11.79308,-2.96533 15.81475,-6.10606 26.97469,-19.35098 30.59863,-36.31526 0.89748,-4.20126 1.22112,-12.00211 0.65224,-15.72104 -1.17237,-7.66403 -2.21845,-11.14488 -5.03519,-16.75469 C 140.34673,105.25754 131.24278,97.01048 119.96192,92.650528 109.69427,88.682169 99.635774,88.122036 89.055042,90.929402 84.78842,92.061456 79.035827,94.690685 74.712562,97.484648 67.15,102.37205 60.055187,111.07085 56.641327,119.64141 c -1.637338,4.11058 -2.33074,6.6494 -3.25085,11.90269 -0.689857,3.93868 -0.346734,12.79067 0.689337,17.7837 0.837226,4.03475 3.856084,11.90695 5.394804,14.06788 0.304463,0.42758 0.553569,0.84083 0.553569,0.91834 0,0.60411 4.433692,6.21346 7.004111,8.86136 4.321942,4.45222 8.518971,7.49997 13.756544,9.98957 7.02697,3.34016 13.295143,4.76663 21.257128,4.83754 2.08202,0.0185 4.64186,-0.0899 5.68854,-0.2409 z"
         id="path2"
         inkscape:export-filename="logo-hashpass.svg"
         inkscape:export-xdpi="96"
         inkscape:export-ydpi="96" /><path
         style="fill:#cf0f17"
         d="m 81.586757,163.26775 c -0.224966,-5.4 -0.08534,-8.199 0.434311,-8.70611 0.355666,-0.34707 2.033683,-1.31956 6.052951,-3.50796 1.091407,-0.59424 4.008438,-2.21781 6.482292,-3.60792 2.473854,-1.39011 6.609729,-3.6904 9.190829,-5.11174 2.58111,-1.42135 4.65508,-2.70242 4.60884,-2.84681 -0.0735,-0.2296 -1.5975,-1.12688 -6.9205,-4.07463 -0.72761,-0.40292 -3.049326,-1.69516 -5.159378,-2.87162 -4.610414,-2.57055 -6.191631,-3.44095 -10.811468,-5.95134 -2.420754,-1.31542 -3.609482,-2.11425 -3.770312,-2.53366 -0.261305,-0.68143 -0.327678,-11.93466 -0.07429,-12.59499 0.08833,-0.23018 0.31178,-0.41851 0.496557,-0.41851 0.184776,0 2.761647,1.41189 5.72638,3.13754 2.964732,1.72565 10.569641,6.14651 16.899801,9.82412 6.33015,3.67761 13.05719,7.58629 14.94896,8.68594 5.03516,2.92686 5.67582,3.40371 6.23881,4.64352 0.89385,1.96842 0.55373,4.5103 -0.78539,5.86963 -0.60453,0.61365 -17.49191,10.51134 -18.6622,10.93791 -0.15674,0.0571 -0.58263,0.30685 -0.94643,0.55494 -0.3638,0.24808 -1.3163,0.8115 -2.11667,1.25202 -0.80036,0.44053 -5.027084,2.85004 -9.392709,5.35445 -9.286624,5.32744 -11.635037,6.62534 -11.987839,6.62534 -0.151021,0 -0.339083,-1.93657 -0.452548,-4.66012 z"
         id="path1" /></g></g></svg>
