<svg width="1200" height="630" viewBox="0 0 1200 630" fill="none" xmlns="http://www.w3.org/2000/svg">
  <defs>
    <linearGradient id="bg" x1="92" y1="28" x2="1110" y2="606" gradientUnits="userSpaceOnUse">
      <stop stop-color="#050816" />
      <stop offset="0.48" stop-color="#081222" />
      <stop offset="1" stop-color="#0B1730" />
    </linearGradient>
    <radialGradient id="accent" cx="0" cy="0" r="1" gradientUnits="userSpaceOnUse" gradientTransform="translate(932 138) rotate(123.012) scale(274.168 322.467)">
      <stop stop-color="#62F0D2" stop-opacity="0.7" />
      <stop offset="1" stop-color="#62F0D2" stop-opacity="0" />
    </radialGradient>
    <radialGradient id="blue" cx="0" cy="0" r="1" gradientUnits="userSpaceOnUse" gradientTransform="translate(244 500) rotate(-31.5865) scale(278.953 330.613)">
      <stop stop-color="#60A5FA" stop-opacity="0.72" />
      <stop offset="1" stop-color="#60A5FA" stop-opacity="0" />
    </radialGradient>
    <linearGradient id="chip" x1="405" y1="374" x2="795" y2="601" gradientUnits="userSpaceOnUse">
      <stop stop-color="#7DC4FF" />
      <stop offset="1" stop-color="#5FF0D3" />
    </linearGradient>
  </defs>

  <rect width="1200" height="630" rx="48" fill="url(#bg)" />
  <rect x="92" y="84" width="1016" height="462" rx="36" fill="#0A1326" fill-opacity="0.82" stroke="rgba(153, 177, 255, 0.18)" />
  <circle cx="1010" cy="164" r="156" fill="url(#accent)" />
  <circle cx="220" cy="488" r="182" fill="url(#blue)" />
  <path d="M102 120H1098" stroke="rgba(255,255,255,0.08)" />

  <g transform="translate(142 176)">
    <rect x="0" y="0" width="110" height="110" rx="28" fill="url(#chip)" />
    <circle cx="36" cy="42" r="12" fill="#071021" fill-opacity="0.92" />
    <rect x="52" y="30" width="24" height="52" rx="12" fill="#071021" fill-opacity="0.92" />
    <path d="M36 58C50 58 61 69 61 83V86H25V83C25 69 22 58 36 58Z" fill="#071021" fill-opacity="0.92" />
    <path d="M84 26L92 34L71 55L62 46L84 26Z" fill="#071021" fill-opacity="0.92" />
  </g>

  <text x="294" y="226" fill="#F7FAFF" font-size="24" font-weight="700" letter-spacing="0.26em" font-family="Manrope, Arial, sans-serif">
    HASHPASS CLUB
  </text>
  <text x="292" y="332" fill="#FFFFFF" font-size="88" font-weight="700" letter-spacing="-0.05em" font-family="Fraunces, Georgia, serif">
    Membership
  </text>
  <text x="292" y="420" fill="#FFFFFF" font-size="88" font-weight="700" letter-spacing="-0.05em" font-family="Fraunces, Georgia, serif">
    for private clubs
  </text>
  <text x="294" y="484" fill="rgba(246,248,255,0.74)" font-size="28" font-weight="500" font-family="Manrope, Arial, sans-serif">
    Invite-only access, renewals, passes, and member management in one place.
  </text>

  <g transform="translate(292 520)">
    <rect width="196" height="46" rx="23" fill="rgba(255,255,255,0.06)" stroke="rgba(255,255,255,0.12)" />
    <text x="22" y="30" fill="#5FF0D3" font-size="18" font-weight="700" font-family="IBM Plex Mono, ui-monospace, SFMono-Regular, monospace">
      hashpass.club
    </text>
  </g>
</svg>
